<svg xmlns="http://www.w3.org/2000/svg" width="37" height="37" viewBox="0 0 37 37" fill="none">
    <path d="M24.9634 0.5H9.07132C4.06824 0.5 0 4.65113 0 9.75613V25.972C0 31.0947 4.06824 35.2282 9.07132 35.2282H24.9634C29.9838 35.2282 34.0348 31.077 34.0348 25.972V9.75613C34.0348 4.65113 29.9838 0.5 24.9634 0.5Z" fill="#1B7DFB"/>
    <path d="M18.7128 22.5453C19.0417 23.7641 19.7169 24.612 20.669 25.0713C21.5865 25.5129 22.9715 25.7072 24.8758 25.7072H26.2953C27.611 25.7072 28.6843 24.612 28.6843 23.2695C28.6843 23.1282 28.5805 23.0222 28.442 23.0222H25.3605C23.5428 23.0222 22.9542 22.8456 22.5733 22.6866C22.1232 22.51 21.8289 22.0507 21.6904 21.4324C21.5173 20.6905 21.3442 19.825 21.3442 17.8819C21.3442 15.9388 21.5 15.0026 21.6904 14.2607C21.8462 13.6424 22.1232 13.2008 22.5733 13.0242C22.9542 12.8829 23.5428 12.7239 25.3605 12.7239H26.2953C27.611 12.7239 28.6843 11.6287 28.6843 10.2862C28.6843 10.1449 28.5805 10.0389 28.442 10.0389H28.1477C23.8197 10.0389 25.4644 10.0212 24.8931 10.0212C22.9888 10.0212 21.6558 10.2332 20.7556 10.6748C19.7861 11.1341 19.0417 11.982 18.7128 13.2008C18.4185 14.3137 18.2627 15.5149 18.2627 17.8819C18.2627 20.2312 18.4185 21.4324 18.7128 22.5453Z" fill="white"/>
    <path d="M16.7404 10.0212H5.81676C5.55708 10.0212 5.33203 10.2332 5.33203 10.5158V12.3353C5.33203 12.6002 5.53977 12.8299 5.81676 12.8299H9.29641V25.2303C9.29641 25.4952 9.50415 25.7249 9.78113 25.7249C11.2526 25.7249 12.4471 24.506 12.4471 23.0046V13.0595C12.4471 12.9182 12.551 12.8122 12.6895 12.8122H14.7496C16.0307 12.8122 17.104 11.823 17.2252 10.5335C17.2598 10.2509 17.0347 10.0212 16.7404 10.0212Z" fill="white"/>
</svg>